<svg width="38" height="39" viewBox="0 0 38 39" fill="none" xmlns="http://www.w3.org/2000/svg">
<g filter="url(#filter0_dd_47_4265)">
<path d="M3 18.5C3 9.66344 10.1634 2.5 19 2.5C27.8366 2.5 35 9.66344 35 18.5C35 27.3366 27.8366 34.5 19 34.5C10.1634 34.5 3 27.3366 3 18.5Z" fill="#343839"/>
<path d="M27.0319 25.9087H10.9819C10.0702 25.9087 9.32959 25.1681 9.32959 24.2563V12.561C9.32959 11.6493 10.0702 10.9087 10.9819 10.9087H27.0296C27.9413 10.9087 28.6819 11.6493 28.6819 12.561V24.2563C28.6843 25.1681 27.9437 25.9087 27.0319 25.9087Z" fill="white"/>
<path d="M27.7468 12.5493C27.7468 12.1626 27.4304 11.8462 27.0437 11.8462H10.9702C10.5835 11.8462 10.2671 12.1626 10.2671 12.5493V15.3642H27.7444V12.5493H27.7468ZM12.5194 14.8017C11.8585 14.8017 11.3194 14.2626 11.3194 13.6017C11.3194 12.9407 11.8585 12.4017 12.5194 12.4017C13.1804 12.4017 13.7194 12.9407 13.7194 13.6017C13.7194 14.2626 13.1827 14.8017 12.5194 14.8017ZM19.1241 14.6423H15.7819C15.2171 14.6423 14.7577 14.1829 14.7577 13.6181C14.7577 13.0532 15.2171 12.5938 15.7819 12.5938H19.1241C19.689 12.5938 20.1483 13.0532 20.1483 13.6181C20.1483 14.1829 19.689 14.6423 19.1241 14.6423Z" fill="#E6E6E6"/>
<path d="M11.9991 24.1438H19.0022C19.1312 24.1438 19.2366 24.0384 19.2366 23.9095C19.2366 23.7806 19.1312 23.6751 19.0022 23.6751H11.9991C11.7999 23.6751 11.6382 23.5134 11.6382 23.3142V18.7954C11.6382 18.6665 11.5327 18.561 11.4038 18.561C11.2749 18.561 11.1694 18.6665 11.1694 18.7954V23.3165C11.1718 23.7712 11.5421 24.1438 11.9991 24.1438Z" fill="#06F3FF"/>
<path d="M12.5196 12.8704C12.1165 12.8704 11.7883 13.1985 11.7883 13.6016C11.7883 14.0047 12.1165 14.3329 12.5196 14.3329C12.9227 14.3329 13.2508 14.0047 13.2508 13.6016C13.2508 13.1985 12.9227 12.8704 12.5196 12.8704Z" fill="white"/>
<path d="M12.5196 12.4016C11.8586 12.4016 11.3196 12.9407 11.3196 13.6016C11.3196 14.2625 11.8586 14.8016 12.5196 14.8016C13.1805 14.8016 13.7196 14.2625 13.7196 13.6016C13.7196 12.9407 13.1829 12.4016 12.5196 12.4016ZM12.5196 14.3329C12.1165 14.3329 11.7883 14.0047 11.7883 13.6016C11.7883 13.1985 12.1165 12.8704 12.5196 12.8704C12.9227 12.8704 13.2508 13.1985 13.2508 13.6016C13.2508 14.0047 12.9227 14.3329 12.5196 14.3329Z" fill="#005BFF"/>
<path d="M19.1242 13.0649H15.782C15.4773 13.0649 15.2266 13.3134 15.2266 13.6204C15.2266 13.9274 15.475 14.1759 15.782 14.1759H19.1242C19.4289 14.1759 19.6797 13.9274 19.6797 13.6204C19.6797 13.3134 19.4289 13.0649 19.1242 13.0649Z" fill="white"/>
<path d="M19.1242 12.5962H15.782C15.2172 12.5962 14.7578 13.0556 14.7578 13.6204C14.7578 14.1853 15.2172 14.6446 15.782 14.6446H19.1242C19.6891 14.6446 20.1484 14.1853 20.1484 13.6204C20.1484 13.0556 19.6891 12.5962 19.1242 12.5962ZM19.1242 14.1735H15.782C15.4773 14.1735 15.2266 13.9251 15.2266 13.6181C15.2266 13.311 15.475 13.0626 15.782 13.0626H19.1242C19.4289 13.0626 19.6797 13.311 19.6797 13.6181C19.6797 13.9251 19.4289 14.1735 19.1242 14.1735Z" fill="#005BFF"/>
<path d="M27.0437 10.9087H10.9702C10.0655 10.9087 9.32959 11.6446 9.32959 12.5493V24.2681C9.32959 25.1728 10.0655 25.9087 10.9702 25.9087H27.0413C27.946 25.9087 28.6819 25.1728 28.6819 24.2681V12.5493C28.6843 11.6446 27.9483 10.9087 27.0437 10.9087ZM27.7468 24.2681C27.7468 24.6548 27.4304 24.9712 27.0437 24.9712H10.9702C10.5835 24.9712 10.2671 24.6548 10.2671 24.2681V15.8329H27.7444V24.2681H27.7468ZM27.7468 15.3642H10.2694V12.5493C10.2694 12.1626 10.5858 11.8462 10.9726 11.8462H27.0437C27.4304 11.8462 27.7468 12.1626 27.7468 12.5493V15.3642Z" fill="#005BFF"/>
<path d="M17.779 21.1391L15.1001 20.0774L17.779 19.0532V17.9633L13.9399 19.625V20.5508L17.779 22.2196V21.1391ZM20.329 17.1594H19.5228L18.1353 22.9532H18.9274L20.329 17.1594ZM24.529 19.6321L20.6853 17.9704V19.0438L23.3665 20.0868L20.6853 21.1415V22.2243L24.529 20.5508V19.6321Z" fill="#005BFF"/>
</g>
<defs>
<filter id="filter0_dd_47_4265" x="0" y="0.5" width="38" height="38" filterUnits="userSpaceOnUse" color-interpolation-filters="sRGB">
<feFlood flood-opacity="0" result="BackgroundImageFix"/>
<feColorMatrix in="SourceAlpha" type="matrix" values="0 0 0 0 0 0 0 0 0 0 0 0 0 0 0 0 0 0 127 0" result="hardAlpha"/>
<feMorphology radius="1" operator="erode" in="SourceAlpha" result="effect1_dropShadow_47_4265"/>
<feOffset dy="1"/>
<feGaussianBlur stdDeviation="1"/>
<feColorMatrix type="matrix" values="0 0 0 0 0 0 0 0 0 0 0 0 0 0 0 0 0 0 0.1 0"/>
<feBlend mode="normal" in2="BackgroundImageFix" result="effect1_dropShadow_47_4265"/>
<feColorMatrix in="SourceAlpha" type="matrix" values="0 0 0 0 0 0 0 0 0 0 0 0 0 0 0 0 0 0 127 0" result="hardAlpha"/>
<feOffset dy="1"/>
<feGaussianBlur stdDeviation="1.5"/>
<feColorMatrix type="matrix" values="0 0 0 0 0 0 0 0 0 0 0 0 0 0 0 0 0 0 0.1 0"/>
<feBlend mode="normal" in2="effect1_dropShadow_47_4265" result="effect2_dropShadow_47_4265"/>
<feBlend mode="normal" in="SourceGraphic" in2="effect2_dropShadow_47_4265" result="shape"/>
</filter>
</defs>
</svg>
